<?xml version="1.0"?>
<svg version="1.1" xmlns="http://www.w3.org/2000/svg" width="170px" height="114px"><rect x="0.25" y="0.25" width="169.5" height="113.5" rx="3.75" stroke="#E0E0E0" stroke-width="0.5" fill="#FFF"/><path fill-rule="evenodd" clip-rule="evenodd" transform="translate(55 17)" fill="#FFC107" d="M7.343.489a.686.686 0 0 1 1.314 0l1.488 4.48a.7.7 0 0 0 .642.489l4.53.096c.66.014.932.891.406 1.308l-3.61 2.866a.747.747 0 0 0-.246.79l1.312 4.54c.191.66-.521 1.203-1.063.809l-3.719-2.71a.67.67 0 0 0-.794 0l-3.72 2.71c-.54.394-1.253-.148-1.062-.809l1.312-4.54a.748.748 0 0 0-.246-.79L.277 6.862C-.25 6.445.023 5.568.683 5.554l4.53-.096a.7.7 0 0 0 .642-.49L7.343.489Z"/><path fill-rule="evenodd" clip-rule="evenodd" transform="translate(75 17)" fill="#FFC107" d="M7.343.489a.686.686 0 0 1 1.314 0l1.488 4.48a.7.7 0 0 0 .642.489l4.53.096c.66.014.932.891.406 1.308l-3.61 2.866a.747.747 0 0 0-.246.79l1.312 4.54c.191.66-.521 1.203-1.063.809l-3.719-2.71a.67.67 0 0 0-.794 0l-3.72 2.71c-.54.394-1.253-.148-1.062-.809l1.312-4.54a.748.748 0 0 0-.246-.79L.277 6.862C-.25 6.445.023 5.568.683 5.554l4.53-.096a.7.7 0 0 0 .642-.49L7.343.489Z"/><path fill-rule="evenodd" clip-rule="evenodd" transform="translate(95 17)" fill="#FFC107" d="M7.343.489a.686.686 0 0 1 1.314 0l1.488 4.48a.7.7 0 0 0 .642.489l4.53.096c.66.014.932.891.406 1.308l-3.61 2.866a.747.747 0 0 0-.246.79l1.312 4.54c.191.66-.521 1.203-1.063.809l-3.719-2.71a.67.67 0 0 0-.794 0l-3.72 2.71c-.54.394-1.253-.148-1.062-.809l1.312-4.54a.748.748 0 0 0-.246-.79L.277 6.862C-.25 6.445.023 5.568.683 5.554l4.53-.096a.7.7 0 0 0 .642-.49L7.343.489Z"/><path fill-rule="evenodd" clip-rule="evenodd" transform="translate(115 17)" fill="#FFC107" d="M7.343.489a.686.686 0 0 1 1.314 0l1.488 4.48a.7.7 0 0 0 .642.489l4.53.096c.66.014.932.891.406 1.308l-3.61 2.866a.747.747 0 0 0-.246.79l1.312 4.54c.191.66-.521 1.203-1.063.809l-3.719-2.71a.67.67 0 0 0-.794 0l-3.72 2.71c-.54.394-1.253-.148-1.062-.809l1.312-4.54a.748.748 0 0 0-.246-.79L.277 6.862C-.25 6.445.023 5.568.683 5.554l4.53-.096a.7.7 0 0 0 .642-.49L7.343.489Z"/><path fill-rule="evenodd" clip-rule="evenodd" transform="translate(135 17)" fill="#FFC107" d="M8 1.684v10.343c.346 0 .691.107.986.322l3.001 2.186-1.08-3.739a1.747 1.747 0 0 1 .584-1.852l3.033-2.406-3.758-.08a1.699 1.699 0 0 1-1.57-1.174L8 1.684ZM7.343.489a.686.686 0 0 1 1.314 0l1.488 4.48a.7.7 0 0 0 .642.489l4.53.096c.66.014.932.891.406 1.308l-3.61 2.866a.747.747 0 0 0-.246.79l1.312 4.54c.191.66-.521 1.203-1.063.809l-3.719-2.71a.67.67 0 0 0-.794 0l-3.72 2.71c-.54.394-1.253-.148-1.062-.809l1.312-4.54a.748.748 0 0 0-.246-.79L.277 6.862C-.25 6.445.023 5.568.683 5.554l4.53-.096a.7.7 0 0 0 .642-.49L7.343.489Z"/><path fill="#212121" d="M28.072265625,26.916015625l1.796875,0l0,1.9140625l-1.796875,0l0,3.154296875l-2.36328125,0l0-3.154296875l-6.103515625,0l-0.05859375-1.455078125l6.083984375-9.609375l2.44140625,0l0,9.150390625z M21.890625,26.916015625l3.818359375,0l0-5.771484375l-0.05859375-0.01953125l-0.1953125,0.419921875z M33.912109375,31.681640625l-1.513671875,3.046875l-1.50390625,0l0.68359375-3.134765625l0-1.93359375l2.333984375,0l0,2.021484375z M44.927734375,21.515625q0,1.07421875-0.5859375,1.904296875t-1.591796875,1.26953125q1.162109375,0.44921875,1.8505859375,1.34765625t0.6884765625,2.0703125q0,1.982421875-1.30859375,3.0322265625t-3.408203125,1.0498046875q-2.12890625,0-3.4375-1.0498046875t-1.30859375-3.0322265625q0-1.171875,0.6787109375-2.0703125t1.8603515625-1.357421875q-1.015625-0.4296875-1.591796875-1.2548828125t-0.576171875-1.9091796875q0-1.89453125,1.1962890625-2.9248046875t3.1591796875-1.0302734375q1.943359375,0,3.1591796875,1.0302734375t1.2158203125,2.9248046875z M42.92578125,27.990234375q0-1.044921875-0.6689453125-1.69921875t-1.7041015625-0.654296875q-1.0546875,0-1.7041015625,0.6494140625t-0.6494140625,1.7041015625q0,1.07421875,0.64453125,1.689453125t1.728515625,0.615234375q1.044921875,0,1.69921875-0.6201171875t0.654296875-1.6845703125z M42.5546875,21.603515625q0-0.9375-0.556640625-1.5380859375t-1.4453125-0.6005859375q-0.91796875,0-1.4501953125,0.5810546875t-0.5322265625,1.5576171875q0,0.966796875,0.5419921875,1.5478515625t1.4599609375,0.5810546875q0.8984375,0,1.4404296875-0.5810546875t0.5419921875-1.5478515625z"/><path fill="#616161" d="M52.2607421875,45.892578125q0,1.564453125-0.9814453125,2.5927734375t-2.5458984375,1.0283203125q-1.53515625,0-2.4931640625-1.0283203125t-0.9580078125-2.5927734375l0-1.53515625q0-1.55859375,0.9580078125-2.58984375t2.4873046875-1.03125q1.564453125,0,2.548828125,1.03125t0.984375,2.58984375l0,1.53515625z M50.8427734375,44.345703125q0-1.06640625-0.5712890625-1.751953125t-1.5439453125-0.685546875q-0.9375,0-1.482421875,0.685546875t-0.544921875,1.751953125l0,1.546875q0,1.078125,0.544921875,1.7666015625t1.48828125,0.6884765625q0.978515625,0,1.5439453125-0.685546875t0.5654296875-1.76953125l0-1.546875z M58.8056640625,49.390625l-1.423828125,0l0-2.115234375q-0.28125,0.064453125-0.5771484375,0.0966796875t-0.5888671875,0.0322265625q-1.265625,0-1.9658203125-0.603515625t-0.7001953125-1.810546875l0-1.9453125l1.41796875,0l0,1.9453125q0,0.6796875,0.3017578125,0.97265625t0.9462890625,0.29296875q0.310546875,0,0.5947265625-0.0322265625t0.5712890625-0.1025390625l0-3.0703125l1.423828125,0l0,6.33984375z M63.0126953125,49.513671875q-1.34765625,0-2.1474609375-0.8818359375t-0.7998046875-2.2646484375l0-0.234375q0-1.3828125,0.7939453125-2.2939453125t1.9892578125-0.9052734375q1.283203125,0,1.9658203125,0.7763671875t0.6826171875,2.0830078125l0,0.837890625l-3.955078125,0l-0.01171875,0.029296875q0.03515625,0.755859375,0.4423828125,1.236328125t1.1279296875,0.48046875q0.57421875,0,0.984375-0.140625t0.791015625-0.404296875l0.45703125,0.931640625q-0.357421875,0.31640625-0.94921875,0.533203125t-1.37109375,0.216796875z M62.8486328125,44.076171875q-0.52734375,0-0.8671875,0.4189453125t-0.421875,1.0634765625l0.01171875,0.029296875l2.513671875,0l0-0.146484375q0-0.603515625-0.3076171875-0.984375t-0.9287109375-0.380859375z M71.9482421875,49.390625l-1.423828125,0l0-2.560546875l-2.466796875,0l0,2.560546875l-1.423828125,0l0-6.33984375l1.423828125,0l0,2.642578125l2.466796875,0l0-2.642578125l1.423828125,0l0,6.33984375z M74.9482421875,45.259765625l1.388671875,0q1.1953125,0,1.8720703125,0.568359375t0.6767578125,1.482421875q0,0.919921875-0.6796875,1.5t-1.869140625,0.580078125l-2.8125,0l0-6.33984375l1.423828125,0l0,2.208984375z M74.9482421875,46.40234375l0,1.8515625l1.388671875,0q0.57421875,0,0.849609375-0.2607421875t0.275390625-0.6591796875q0-0.380859375-0.2783203125-0.65625t-0.8466796875-0.275390625l-1.388671875,0z M85.3076171875,45.224609375l1.171875-2.173828125l1.634765625,0l-1.9921875,3.134765625l2.05078125,3.205078125l-1.6171875,0l-1.224609375-2.2265625l-1.224609375,2.2265625l-1.62890625,0l2.05078125-3.205078125l-1.9921875-3.134765625l1.6171875,0z M88.8525390625,46.162109375q0-1.412109375,0.7734375-2.3203125q0.78515625-0.908203125,2.126953125-0.908203125q1.365234375,0,2.138671875,0.908203125q0.779296875,0.90234375,0.779296875,2.3203125l0,0.123046875q0,1.4296875-0.779296875,2.33203125q-0.7734375,0.896484375-2.126953125,0.896484375q-1.359375,0-2.138671875-0.90234375q-0.7734375-0.90234375-0.7734375-2.326171875l0-0.123046875z M90.2763671875,46.28515625q0,0.92578125,0.36328125,1.51171875q0.357421875,0.580078125,1.125,0.580078125q0.744140625,0,1.11328125-0.580078125q0.375-0.5859375,0.375-1.51171875l0-0.123046875q0-0.908203125-0.375-1.494140625q-0.369140625-0.591796875-1.125-0.591796875q-0.744140625,0-1.11328125,0.591796875q-0.36328125,0.591796875-0.36328125,1.494140625l0,0.123046875z M101.4677734375,46.431640625q0,1.3828125-0.650390625,2.232421875t-1.810546875,0.849609375q-0.5390625,0-0.955078125-0.193359375t-0.71484375-0.568359375l0,3.076171875l-1.423828125,0l0-8.77734375l1.201171875,0l0.140625,0.796875q0.3046875-0.4453125,0.7353515625-0.6796875t0.9990234375-0.234375q1.171875,0,1.8251953125,0.9287109375t0.6533203125,2.4462890625l0,0.123046875z M100.0498046875,46.30859375q0-0.97265625-0.3662109375-1.5908203125t-1.0927734375-0.6181640625q-0.4453125,0-0.755859375,0.1904296875t-0.498046875,0.5302734375l0,2.865234375q0.1875,0.333984375,0.498046875,0.5126953125t0.767578125,0.1787109375q0.7265625,0,1.0869140625-0.5361328125t0.3603515625-1.4091796875l0-0.123046875z M102.4462890625,46.162109375q0-1.412109375,0.7734375-2.3203125q0.78515625-0.908203125,2.126953125-0.908203125q1.365234375,0,2.138671875,0.908203125q0.779296875,0.90234375,0.779296875,2.3203125l0,0.123046875q0,1.4296875-0.779296875,2.33203125q-0.7734375,0.896484375-2.126953125,0.896484375q-1.359375,0-2.138671875-0.90234375q-0.7734375-0.90234375-0.7734375-2.326171875l0-0.123046875z M103.8701171875,46.28515625q0,0.92578125,0.36328125,1.51171875q0.357421875,0.580078125,1.125,0.580078125q0.744140625,0,1.11328125-0.580078125q0.375-0.5859375,0.375-1.51171875l0-0.123046875q0-0.908203125-0.375-1.494140625q-0.369140625-0.591796875-1.125-0.591796875q-0.744140625,0-1.11328125,0.591796875q-0.36328125,0.591796875-0.36328125,1.494140625l0,0.123046875z M110.9189453125,43.05078125l0,5.203125l1.98046875,0l0-5.203125l1.423828125,0l0,5.203125l1.986328125,0l0-5.203125l1.41796875,0l0,6.33984375l-8.232421875,0l0-6.33984375l1.423828125,0z M119.0107421875,46.162109375q0-1.412109375,0.7734375-2.3203125q0.78515625-0.908203125,2.126953125-0.908203125q1.365234375,0,2.138671875,0.908203125q0.779296875,0.90234375,0.779296875,2.3203125l0,0.123046875q0,1.4296875-0.779296875,2.33203125q-0.7734375,0.896484375-2.126953125,0.896484375q-1.359375,0-2.138671875-0.90234375q-0.7734375-0.90234375-0.7734375-2.326171875l0-0.123046875z M120.4345703125,46.28515625q0,0.92578125,0.36328125,1.51171875q0.357421875,0.580078125,1.125,0.580078125q0.744140625,0,1.11328125-0.580078125q0.375-0.5859375,0.375-1.51171875l0-0.123046875q0-0.908203125-0.375-1.494140625q-0.369140625-0.591796875-1.125-0.591796875q-0.744140625,0-1.11328125,0.591796875q-0.36328125,0.591796875-0.36328125,1.494140625l0,0.123046875z"/><path fill-rule="evenodd" clip-rule="evenodd" fill="#3460A4" transform="translate(36,65) scale(0.8)" d="M13.35 0c-.75 0-2.67.07-4.61.28-.98.1-1.98.25-2.86.45a6.6 6.6 0 0 0-2.32.9c-.6.44-1.09 1.2-1.46 1.9-.4.75-.76 1.63-1.06 2.49-.3.85-.56 1.72-.74 2.44-.17.7-.3 1.37-.3 1.82 0 .32.1.61.18.82.1.23.22.47.35.71.28.48.65 1.03 1.08 1.6.86 1.17 2 2.54 3.12 3.84a165.82 165.82 0 0 0 4.56 5.06l.01.01.02.02.01.01.01.01c1.05 1.01 2.5 1.64 4.01 1.64a6.1 6.1 0 0 0 4.1-1.73c.12-.11 2.36-2.5 4.56-5.06a68.8 68.8 0 0 0 3.1-3.8c.42-.58.79-1.13 1.06-1.6.14-.24.26-.48.35-.71.09-.21.18-.5.18-.82 0-.45-.13-1.13-.3-1.82a27 27 0 0 0-.74-2.44c-.3-.86-.66-1.74-1.06-2.49a5.57 5.57 0 0 0-1.46-1.9c-.6-.43-1.48-.7-2.32-.9-.88-.2-1.88-.35-2.85-.45A48.7 48.7 0 0 0 13.35 0Zm-2.52 8.1L5.1 3.36c.26-.12.68-.27 1.29-.4.76-.18 1.67-.31 2.6-.42 1.85-.2 3.7-.26 4.36-.26.67 0 2.51.06 4.37.26.93.1 1.84.24 2.6.41.6.14 1.02.29 1.28.41l-5.73 4.76a9.36 9.36 0 0 0-2.52-.33c-1.06 0-1.9.16-2.52.33Zm3.66 13.4v-9.3l8.4-6.97A24.72 24.72 0 0 1 24.19 9a8.66 8.66 0 0 1 .22 1.26c-.04.1-.1.23-.2.41-.22.37-.53.84-.94 1.38-.8 1.09-1.88 2.4-2.98 3.67a161.78 161.78 0 0 1-4.35 4.84l-.03.04a5.27 5.27 0 0 0-.02.02c-.4.38-.88.69-1.39.88Zm-2.28-9.3v9.32a3.67 3.67 0 0 1-1.28-.79h-.01a15.27 15.27 0 0 1-.37-.4 152.58 152.58 0 0 1-4.09-4.55 68.26 68.26 0 0 1-3.01-3.71c-.4-.55-.73-1.02-.94-1.39a3.47 3.47 0 0 1-.23-.46c.02-.18.08-.6.24-1.21A24.68 24.68 0 0 1 3.8 5.23l8.41 6.98Zm-1.27 8.54ZM37.12 7.23h-4.48v9.88h4.48c1.07 0 2.02-.2 2.84-.6a4.58 4.58 0 0 0 2.6-4.34c0-.99-.22-1.85-.68-2.6a4.5 4.5 0 0 0-1.92-1.72 6.2 6.2 0 0 0-2.84-.62Zm2.24 7.18c-.58.55-1.36.82-2.35.82h-2.09V9.11h2.09c.99 0 1.77.28 2.35.83.6.55.9 1.3.9 2.23 0 .94-.3 1.69-.9 2.24ZM48.68 14.36l1.9 2.75h2.46l-2.22-3.18a3.32 3.32 0 0 0 1.5-1.2c.35-.54.53-1.18.53-1.91 0-.74-.17-1.37-.52-1.9a3.38 3.38 0 0 0-1.5-1.25c-.63-.29-1.4-.44-2.27-.44H44.3v9.88h2.28v-2.75h2.1ZM50 9.55c.36.29.54.71.54 1.27 0 .54-.18.97-.54 1.27-.35.3-.88.45-1.56.45h-1.87V9.1h1.87c.68 0 1.2.15 1.56.45Z"/><path fill-rule="evenodd" clip-rule="evenodd" fill="#3460A4" transform="translate(36,65) scale(0.8)" d="M62.3 15.27v1.84h-7.64V7.23h7.46v1.84h-5.19v2.14h4.59V13h-4.59v2.28h5.38Z"/><path fill-rule="evenodd" clip-rule="evenodd" fill="#3460A4" transform="translate(36,65) scale(0.8)" d="M66.04 15h4.59l.87 2.1h2.4L69.5 7.24h-2.26l-4.4 9.88h2.34l.87-2.12Zm2.3-5.52 1.57 3.78h-3.13l1.56-3.78Z"/><path fill-rule="evenodd" clip-rule="evenodd" fill="#3460A4" transform="translate(36,65) scale(0.8)" d="m83.91 17.1-.01-5.92-2.9 4.88h-1.04l-2.9-4.75v5.8h-2.13V7.23h1.89l3.7 6.14 3.63-6.14h1.88l.02 9.88h-2.14Z"/><path fill-rule="evenodd" clip-rule="evenodd" fill="#3460A4" transform="translate(36,65) scale(0.8)" d="M103.82 17.28a5.8 5.8 0 0 1-2.77-.67 5 5 0 0 1-1.94-1.82 5.06 5.06 0 0 1-.69-2.62 4.99 4.99 0 0 1 2.63-4.44 5.8 5.8 0 0 1 2.77-.67c1.03 0 1.95.23 2.77.67a4.98 4.98 0 0 1 2.64 4.44 4.99 4.99 0 0 1-2.64 4.44c-.82.45-1.74.67-2.77.67Zm0-1.95c.59 0 1.11-.13 1.58-.4a2.9 2.9 0 0 0 1.1-1.12c.28-.48.41-1.03.41-1.64 0-.61-.13-1.16-.4-1.64a2.8 2.8 0 0 0-1.1-1.11c-.48-.27-1-.4-1.59-.4a3.09 3.09 0 0 0-2.69 1.51c-.26.48-.4 1.03-.4 1.64 0 .61.14 1.16.4 1.64a2.98 2.98 0 0 0 2.7 1.52Z"/><path fill-rule="evenodd" clip-rule="evenodd" fill="#3460A4" transform="translate(36,65) scale(0.8)" d="M93.23 17.28a4.6 4.6 0 0 1-1.85-.37 3.6 3.6 0 0 1-1.37-1.07l1.27-1.52c.54.72 1.15 1.08 1.84 1.08.93 0 1.4-.54 1.4-1.64V7.23h2.27v6.4c0 1.22-.3 2.13-.9 2.74-.6.6-1.5.9-2.66.9Z"/><path fill-rule="evenodd" clip-rule="evenodd" fill="#3460A4" transform="translate(36,65) scale(0.8)" d="M119.52 12.88a2.58 2.58 0 0 0-1.33-.9 2.38 2.38 0 0 0 1.32-2.18c0-.79-.33-1.41-.98-1.87a4.69 4.69 0 0 0-2.76-.7h-4.83v9.88h5.11c1.29 0 2.27-.23 2.93-.7a2.3 2.3 0 0 0 1.02-2c0-.6-.16-1.12-.48-1.53Zm-6.3-1.6V8.95h2.27c.56 0 .99.1 1.28.3.3.19.44.48.44.86 0 .39-.15.68-.44.88-.3.2-.72.3-1.28.3h-2.27Zm4.02 3.81c-.3.2-.76.3-1.36.3h-2.66v-2.44h2.66c1.21 0 1.82.4 1.82 1.22 0 .42-.15.72-.47.92Z"/><path fill="#959595" d="M52.8671875,101.390625l-1.423828125,0l0-7.177734375l-1.734375,0l0-1.048828125l3.158203125-0.3046875l0,8.53125z M56.39453125,97.576171875l0.4921875-4.716796875l4.505859375,0l0,1.23046875l-3.322265625,0l-0.2578125,2.138671875q0.251953125-0.1875,0.5830078125-0.3076171875t0.7470703125-0.1318359375q1.201171875-0.01171875,1.880859375,0.76171875t0.6796875,2.115234375q0,1.25390625-0.71484375,2.05078125t-2.068359375,0.796875q-1.125,0-1.9013671875-0.6181640625t-0.7470703125-1.7548828125l0.01171875-0.029296875l1.330078125-0.046875q0,0.62109375,0.36328125,0.966796875t0.943359375,0.345703125q0.662109375,0,1.0107421875-0.4658203125t0.3486328125-1.2333984375q0-0.7734375-0.357421875-1.2568359375t-1.01953125-0.4833984375q-0.5859375,0-0.8701171875,0.1904296875t-0.4130859375,0.5478515625z M65.318359375,100.376953125q0.76171875,0,1.23046875-0.5654296875t0.46875-1.6494140625l0-0.392578125q-0.287109375,0.392578125-0.7001953125,0.5947265625t-0.9052734375,0.2021484375q-1.21875,0-1.9248046875-0.7705078125t-0.7060546875-2.1123046875q0-1.27734375,0.791015625-2.1123046875t1.95703125-0.8349609375q1.32421875,0,2.115234375,0.8701171875t0.791015625,2.5048828125l0,1.998046875q0,1.6171875-0.8701171875,2.5107421875t-2.2470703125,0.8935546875q-0.439453125,0-0.908203125-0.087890625t-0.861328125-0.263671875l0.1875-1.08984375q0.357421875,0.1640625,0.732421875,0.234375t0.849609375,0.0703125z M65.546875,97.458984375q0.533203125,0,0.908203125-0.2109375t0.5625-0.544921875l0-0.76171875q0-1.013671875-0.380859375-1.5380859375t-1.083984375-0.5244140625q-0.57421875,0-0.9609375,0.5126953125t-0.38671875,1.2919921875q0,0.796875,0.3544921875,1.2861328125t0.9873046875,0.4892578125z M72.595703125,98.162109375q0-1.412109375,0.7734375-2.3203125q0.78515625-0.908203125,2.126953125-0.908203125q1.365234375,0,2.138671875,0.908203125q0.779296875,0.90234375,0.779296875,2.3203125l0,0.123046875q0,1.4296875-0.779296875,2.33203125q-0.7734375,0.896484375-2.126953125,0.896484375q-1.359375,0-2.138671875-0.90234375q-0.7734375-0.90234375-0.7734375-2.326171875l0-0.123046875z M74.01953125,98.28515625q0,0.92578125,0.36328125,1.51171875q0.357421875,0.580078125,1.125,0.580078125q0.744140625,0,1.11328125-0.580078125q0.375-0.5859375,0.375-1.51171875l0-0.123046875q0-0.908203125-0.375-1.494140625q-0.369140625-0.591796875-1.125-0.591796875q-0.744140625,0-1.11328125,0.591796875q-0.36328125,0.591796875-0.36328125,1.494140625l0,0.123046875z M84.771484375,96.181640625l-2.0625,0l0,5.208984375l-1.423828125,0l0-5.208984375l-2.02734375,0l0-1.130859375l5.513671875,0l0,1.130859375z M90.63671875,96.78515625q0,0.427734375-0.2578125,0.7822265625t-0.71484375,0.5595703125q0.533203125,0.1875,0.8115234375,0.5625t0.2783203125,0.908203125q0,0.890625-0.720703125,1.400390625t-1.88671875,0.509765625q-1.0546875,0-1.81640625-0.50390625t-0.732421875-1.458984375l0.01171875-0.03515625l1.365234375,0q0,0.375,0.333984375,0.6416015625t0.884765625,0.2666015625t0.84375-0.251953125t0.29296875-0.626953125q0-0.451171875-0.26953125-0.662109375t-0.83203125-0.2109375l-1.01953125,0l0-1.025390625l1.01953125,0q0.521484375,0,0.755859375-0.205078125t0.234375-0.580078125q0-0.345703125-0.2490234375-0.5830078125t-0.7822265625-0.2373046875q-0.48046875,0-0.796875,0.2314453125t-0.31640625,0.5830078125l-1.365234375,0l-0.01171875-0.03515625q-0.03515625-0.837890625,0.6796875-1.3564453125t1.76953125-0.5185546875q1.166015625,0,1.828125,0.48046875t0.662109375,1.365234375z M93.607421875,97.259765625l1.388671875,0q1.1953125,0,1.8720703125,0.568359375t0.6767578125,1.482421875q0,0.919921875-0.6796875,1.5t-1.869140625,0.580078125l-2.8125,0l0-6.33984375l1.423828125,0l0,2.208984375z M99.8359375,101.390625l-1.423828125,0l0-6.33984375l1.423828125,0l0,6.33984375z M93.607421875,98.40234375l0,1.8515625l1.388671875,0q0.57421875,0,0.849609375-0.2607421875t0.275390625-0.6591796875q0-0.380859375-0.2783203125-0.65625t-0.8466796875-0.275390625l-1.388671875,0z M101.74609375,101.390625l0-6.33984375l2.572265625,0q1.259765625,0,1.9599609375,0.4423828125t0.7001953125,1.3154296875q0,0.4453125-0.28125,0.7939453125t-0.796875,0.5302734375q0.650390625,0.140625,0.9990234375,0.5361328125t0.3486328125,0.9111328125q0,0.890625-0.6591796875,1.3505859375t-1.8662109375,0.4599609375l-2.9765625,0z M103.1640625,98.689453125l0,1.576171875l1.55859375,0q0.55078125,0,0.826171875-0.2021484375t0.275390625-0.5830078125q0-0.375-0.26953125-0.5830078125t-0.83203125-0.2080078125l-1.55859375,0z M103.1640625,97.669921875l1.236328125,0q0.580078125-0.005859375,0.8671875-0.1875t0.287109375-0.52734375q0-0.392578125-0.310546875-0.5830078125t-0.92578125-0.1904296875l-1.154296875,0l0,1.48828125z M108.232421875,98.162109375q0-1.412109375,0.7734375-2.3203125q0.78515625-0.908203125,2.126953125-0.908203125q1.365234375,0,2.138671875,0.908203125q0.779296875,0.90234375,0.779296875,2.3203125l0,0.123046875q0,1.4296875-0.779296875,2.33203125q-0.7734375,0.896484375-2.126953125,0.896484375q-1.359375,0-2.138671875-0.90234375q-0.7734375-0.90234375-0.7734375-2.326171875l0-0.123046875z M109.65625,98.28515625q0,0.92578125,0.36328125,1.51171875q0.357421875,0.580078125,1.125,0.580078125q0.744140625,0,1.11328125-0.580078125q0.375-0.5859375,0.375-1.51171875l0-0.123046875q0-0.908203125-0.375-1.494140625q-0.369140625-0.591796875-1.125-0.591796875q-0.744140625,0-1.11328125,0.591796875q-0.36328125,0.591796875-0.36328125,1.494140625l0,0.123046875z M115.33984375,101.390625l0-6.33984375l2.572265625,0q1.259765625,0,1.9599609375,0.4423828125t0.7001953125,1.3154296875q0,0.4453125-0.28125,0.7939453125t-0.796875,0.5302734375q0.650390625,0.140625,0.9990234375,0.5361328125t0.3486328125,0.9111328125q0,0.890625-0.6591796875,1.3505859375t-1.8662109375,0.4599609375l-2.9765625,0z M116.7578125,98.689453125l0,1.576171875l1.55859375,0q0.55078125,0,0.826171875-0.2021484375t0.275390625-0.5830078125q0-0.375-0.26953125-0.5830078125t-0.83203125-0.2080078125l-1.55859375,0z M116.7578125,97.669921875l1.236328125,0q0.580078125-0.005859375,0.8671875-0.1875t0.287109375-0.52734375q0-0.392578125-0.310546875-0.5830078125t-0.92578125-0.1904296875l-1.154296875,0l0,1.48828125z"/></svg>
