<svg width="423" height="82" viewBox="0 0 423 82" fill="none" xmlns="http://www.w3.org/2000/svg">
<g clip-path="url(#clip0_1087_43747)">
<path fill-rule="evenodd" clip-rule="evenodd" d="M19.3454 58.8641C15.3108 58.8641 11.8452 58.0916 8.94854 56.5468C6.0519 55.002 3.8277 52.8221 2.27593 50.007C0.758646 47.192 0 43.8964 0 40.1201C0 37.3051 0.431045 34.7476 1.29314 32.4475C2.18972 30.1474 3.46562 28.1735 5.12084 26.5257C6.81057 24.8778 8.84509 23.6248 11.2245 22.7666C13.6384 21.874 16.3453 21.4277 19.3454 21.4277C20.9317 21.4277 22.5696 21.6166 24.2593 21.9942C25.9835 22.3375 27.5008 22.8696 28.8112 23.5905C29.7768 24.1054 30.4492 24.7577 30.8285 25.5473C31.2078 26.3368 31.3285 27.1436 31.1906 27.9675C31.0871 28.7914 30.794 29.5295 30.3112 30.1818C29.8285 30.834 29.2078 31.2803 28.4491 31.5206C27.6904 31.7266 26.8628 31.6065 25.9663 31.1601C24.9318 30.6796 23.8973 30.3191 22.8627 30.0788C21.8627 29.8042 20.8109 29.6668 19.7075 29.6668C17.5695 29.6668 15.7763 30.0788 14.328 30.9027C12.9142 31.6922 11.8452 32.8595 11.121 34.4043C10.3969 35.9491 10.0348 37.8544 10.0348 40.1201C10.0348 42.3859 10.3969 44.3083 11.121 45.8875C11.8452 47.4323 12.9142 48.6167 14.328 49.4406C15.7763 50.2302 17.5695 50.625 19.7075 50.625C20.604 50.625 21.5696 50.522 22.6041 50.316C23.6386 50.0757 24.6559 49.7152 25.6559 49.2346C26.6904 48.7883 27.6043 48.6682 28.3974 48.8742C29.225 49.0801 29.8802 49.4921 30.363 50.11C30.8802 50.728 31.2078 51.4489 31.3457 52.2728C31.4837 53.0623 31.363 53.852 30.9837 54.6415C30.6388 55.4311 30.0181 56.0662 29.1215 56.5468C27.9146 57.2677 26.4146 57.8342 24.6214 58.2461C22.8627 58.6581 21.1041 58.8641 19.3454 58.8641ZM40.9396 58.7611C39.4913 58.7611 38.3534 58.3662 37.5257 57.5767C36.7327 56.7871 36.3361 55.6371 36.3361 54.1266V37.1335C36.3361 35.623 36.7327 34.4729 37.5257 33.6834C38.3534 32.8938 39.4913 32.499 40.9396 32.499C42.4225 32.499 43.5604 32.8938 44.3535 33.6834C45.1466 34.4729 45.5432 35.623 45.5432 37.1335V41.9224H48.0261L53.0952 34.6103C53.7159 33.649 54.4573 33.0311 55.3194 32.7565C56.1815 32.4475 57.0091 32.4131 57.8022 32.6535C58.6298 32.8938 59.3195 33.3229 59.8712 33.9408C60.423 34.5588 60.7334 35.2968 60.8023 36.1551C60.8712 37.0134 60.5782 37.923 59.923 38.8843L56.1993 44.3289C56.7768 44.7218 57.3111 45.1898 57.8022 45.733C58.4229 46.4196 58.9574 47.192 59.4057 48.0503L61.8885 52.6332C62.4058 53.6631 62.561 54.6072 62.3541 55.4654C62.1817 56.3237 61.7506 57.0446 61.0609 57.6282C60.4057 58.1775 59.6298 58.5207 58.7333 58.6581C57.8367 58.8297 56.9574 58.7267 56.0953 58.3491C55.2331 57.9715 54.5263 57.2677 53.9745 56.2378L51.2331 51.0884C50.9227 50.5391 50.6123 50.11 50.302 49.8011C49.9916 49.4577 49.6468 49.2346 49.2675 49.1316C48.8882 48.9943 48.4399 48.9257 47.9226 48.9257H45.5432V54.1266C45.5432 55.6371 45.1466 56.7871 44.3535 57.5767C43.5604 58.3662 42.4225 58.7611 40.9396 58.7611ZM71.5422 58.7611C70.6112 58.7611 69.8181 58.5894 69.1629 58.2461C68.5421 57.9028 68.0766 57.3707 67.7663 56.6498C67.4559 55.9289 67.3007 55.0191 67.3007 53.9206V36.8245C67.3007 35.417 67.6628 34.3528 68.387 33.6319C69.1111 32.8766 70.1456 32.499 71.4905 32.499C72.8009 32.499 73.8009 32.8766 74.4906 33.6319C75.2148 34.3528 75.5768 35.417 75.5768 36.8245V46.6626L84.1633 35.3827C84.6458 34.7647 85.2665 34.1297 86.0254 33.4774C86.8183 32.8251 87.9223 32.499 89.3359 32.499C90.3017 32.499 91.0945 32.6706 91.7152 33.0139C92.3359 33.3573 92.8015 33.8893 93.1118 34.6103C93.4222 35.2968 93.5774 36.2066 93.5774 37.3395V54.4355C93.5774 55.8088 93.2153 56.8729 92.4911 57.6282C91.8017 58.3835 90.7842 58.7611 89.4393 58.7611C88.0945 58.7611 87.0599 58.3835 86.3358 57.6282C85.6464 56.8729 85.3013 55.8088 85.3013 54.4355V44.5534L76.7148 55.8774C76.2665 56.4953 75.6458 57.1304 74.8527 57.7827C74.094 58.435 72.9906 58.7611 71.5422 58.7611ZM167.577 58.8641C165.611 58.8641 163.869 58.5036 162.352 57.7827C160.869 57.0618 159.696 56.0834 158.835 54.8475C158.007 53.5773 157.594 52.1354 157.594 50.522C157.594 48.6682 158.076 47.2092 159.042 46.145C160.007 45.0807 161.559 44.3255 163.697 43.8792C165.835 43.3986 168.68 43.1583 172.232 43.1583H174.197V42.4374C174.197 41.2015 173.869 40.3261 173.215 39.8112C172.594 39.2962 171.508 39.0388 169.956 39.0388C169.128 39.0388 168.197 39.1418 167.163 39.3477C166.128 39.5194 164.973 39.8455 163.697 40.3261C162.766 40.6694 161.972 40.7209 161.318 40.4806C160.662 40.2403 160.145 39.8283 159.766 39.2447C159.421 38.6612 159.249 38.026 159.249 37.3395C159.283 36.6529 159.507 36.0006 159.921 35.3827C160.369 34.7647 161.041 34.2842 161.938 33.9408C163.594 33.3229 165.111 32.911 166.49 32.705C167.904 32.499 169.197 32.396 170.37 32.396C173.197 32.396 175.525 32.808 177.353 33.6319C179.215 34.4214 180.594 35.6573 181.491 37.3395C182.422 38.9873 182.887 41.1157 182.887 43.7247V54.1266C182.887 55.6371 182.525 56.7871 181.801 57.5767C181.077 58.3662 180.025 58.7611 178.646 58.7611C177.231 58.7611 176.145 58.3662 175.387 57.5767C174.756 56.8884 174.4 55.9262 174.319 54.69C174.106 55.3 173.807 55.8502 173.422 56.3408C172.801 57.1304 171.99 57.7483 170.99 58.1946C169.99 58.6409 168.852 58.8641 167.577 58.8641ZM168.869 47.7928C169.766 47.5868 170.887 47.4838 172.232 47.4838H174.197V48.4107C174.197 49.3033 173.991 50.0929 173.577 50.7795C173.163 51.4317 172.611 51.9467 171.922 52.3243C171.266 52.7019 170.507 52.8907 169.646 52.8907C168.576 52.8907 167.749 52.6332 167.163 52.1183C166.611 51.6034 166.335 50.9511 166.335 50.1615C166.335 49.5436 166.542 49.0458 166.956 48.6682C167.37 48.2562 168.007 47.9644 168.869 47.7928ZM120.469 36.5738L122.893 55.0795C122.896 57.5059 121.681 58.7002 118.448 58.7002C115.215 58.7002 114.407 57.8956 114.003 55.0795L112.791 41.8037C108.749 51.8611 105.112 58.7002 101.88 58.7002C99.4549 58.7002 97.0303 56.459 97.8386 55.0795C99.7901 51.7491 100.395 50.3333 102.44 45.5488C103.36 43.3979 104.57 40.5662 106.325 36.5738C107.298 34.3589 108.345 32.5508 110.366 32.5508H116.428C118.448 32.5508 120.469 34.5623 120.469 36.5738ZM152.956 55.0795L150.532 36.5738C150.532 34.5623 148.511 32.5508 146.491 32.5508H140.429C138.409 32.5508 137.361 34.3589 136.388 36.5738C134.633 40.5663 133.423 43.398 132.504 45.5489C130.458 50.3333 129.853 51.7491 127.902 55.0795C127.093 56.459 129.764 58.7002 132.188 58.7002C135.421 58.7002 138.813 51.8611 142.854 41.8037L144.066 55.0795C144.47 57.8956 145.12 58.7002 148.353 58.7002C151.586 58.7002 152.959 57.5059 152.956 55.0795Z" fill="white"/>
<path d="M408.918 3H213.33C207.223 3 202.248 7.9327 202.248 14.046V67.954C202.248 74.0673 207.223 79 213.33 79H408.918C415.025 79 420 74.0673 420 67.954V14.046C420 7.9327 415.025 3 408.918 3Z" stroke="white" stroke-width="6"/>
<path d="M226.25 58.7617C224.733 58.7617 223.56 58.3497 222.733 57.5258C221.905 56.6676 221.491 55.4832 221.491 53.9727V26.7838C221.491 25.2389 221.905 24.0546 222.733 23.2307C223.595 22.4068 224.785 21.9948 226.302 21.9948H239.026C243.164 21.9948 246.354 23.059 248.596 25.1874C250.871 27.2816 252.009 30.1824 252.009 33.89C252.009 37.5976 250.871 40.5156 248.596 42.644C246.354 44.7381 243.164 45.7852 239.026 45.7852H231.009V53.9727C231.009 55.4832 230.612 56.6676 229.819 57.5258C229.026 58.3497 227.837 58.7617 226.25 58.7617ZM231.009 38.5245H237.371C239.165 38.5245 240.543 38.1469 241.509 37.3916C242.475 36.602 242.957 35.4348 242.957 33.89C242.957 32.3108 242.475 31.1436 241.509 30.3884C240.543 29.6331 239.165 29.2555 237.371 29.2555H231.009V38.5245ZM264.429 58.8647C262.464 58.8647 260.722 58.5042 259.205 57.7833C257.722 57.0624 256.55 56.084 255.688 54.8481C254.86 53.5779 254.446 52.1361 254.446 50.5226C254.446 48.6688 254.929 47.2098 255.895 46.1456C256.86 45.0814 258.412 44.3262 260.55 43.8799C262.688 43.3993 265.532 43.1589 269.085 43.1589H271.929V47.4845H269.085C267.74 47.4845 266.619 47.5874 265.722 47.7934C264.86 47.965 264.222 48.2569 263.809 48.6688C263.395 49.0464 263.188 49.5442 263.188 50.1622C263.188 50.9517 263.463 51.604 264.015 52.1189C264.601 52.6339 265.429 52.8914 266.498 52.8914C267.361 52.8914 268.119 52.7025 268.774 52.3249C269.464 51.9473 270.016 51.4324 270.429 50.7801C270.843 50.0935 271.05 49.3039 271.05 48.4114V42.438C271.05 41.2022 270.723 40.3268 270.067 39.8118C269.447 39.2969 268.36 39.0394 266.809 39.0394C265.981 39.0394 265.05 39.1424 264.015 39.3484C262.981 39.52 261.826 39.8462 260.55 40.3268C259.619 40.6701 258.826 40.7216 258.17 40.4812C257.515 40.2409 256.998 39.829 256.619 39.2454C256.274 38.6618 256.101 38.0267 256.101 37.3401C256.136 36.6535 256.36 36.0012 256.774 35.3833C257.222 34.7654 257.895 34.2848 258.791 33.9415C260.446 33.3235 261.963 32.9116 263.343 32.7056C264.757 32.4996 266.05 32.3966 267.222 32.3966C270.05 32.3966 272.378 32.8086 274.205 33.6325C276.068 34.4221 277.447 35.6579 278.343 37.3401C279.275 38.9879 279.74 41.1163 279.74 43.7254V54.1272C279.74 55.6377 279.378 56.7878 278.654 57.5773C277.93 58.3669 276.878 58.7617 275.499 58.7617C274.085 58.7617 272.999 58.3669 272.24 57.5773C271.516 56.7878 271.154 55.6377 271.154 54.1272V52.7884L271.464 53.5093C271.292 54.6078 270.895 55.5519 270.274 56.3415C269.654 57.131 268.843 57.749 267.843 58.1953C266.843 58.6416 265.705 58.8647 264.429 58.8647ZM299.134 58.8647C296.203 58.8647 293.651 58.3154 291.479 57.2169C289.306 56.084 287.634 54.4018 286.461 52.1704C285.288 49.939 284.703 47.1411 284.703 43.7769V40.2238C284.703 36.7565 285.271 33.8385 286.409 31.4697C287.582 29.101 289.289 27.2129 291.53 25.8054C293.806 24.3635 296.616 23.3165 299.962 22.6642L305.6 21.4799C306.841 21.2053 307.893 21.3082 308.755 21.7888C309.617 22.2694 310.168 23.1105 310.41 24.312C310.652 25.5136 310.462 26.5092 309.841 27.2987C309.22 28.054 308.272 28.5517 306.996 28.792L300.686 30.0794C299.099 30.3884 297.754 30.8862 296.651 31.5727C295.582 32.2593 294.754 33.1519 294.168 34.2504C293.616 35.349 293.341 36.6363 293.341 38.1125V41.7686H292.151C292.427 40.3268 292.962 38.9879 293.754 37.752C294.547 36.5162 295.617 35.5378 296.961 34.8169C298.341 34.0616 300.03 33.684 302.031 33.684C304.065 33.684 305.893 34.1818 307.514 35.1773C309.134 36.1386 310.41 37.5289 311.341 39.3484C312.307 41.1335 312.79 43.2963 312.79 45.8366C312.79 48.5143 312.221 50.8316 311.083 52.7884C309.945 54.7108 308.341 56.2041 306.272 57.2684C304.238 58.3326 301.858 58.8647 299.134 58.8647ZM298.772 52.1189C299.841 52.1189 300.72 51.8958 301.41 51.4495C302.099 51.0032 302.617 50.351 302.962 49.4927C303.341 48.6345 303.531 47.5703 303.531 46.3001C303.531 44.3777 303.117 42.9186 302.289 41.9231C301.496 40.9275 300.324 40.4297 298.772 40.4297C297.737 40.4297 296.858 40.6529 296.134 41.0992C295.41 41.5455 294.858 42.1977 294.479 43.056C294.134 43.9142 293.961 44.9612 293.961 46.1971C293.961 48.1539 294.375 49.6301 295.203 50.6256C296.03 51.6211 297.22 52.1189 298.772 52.1189ZM330.797 58.8647C327.969 58.8647 325.504 58.3326 323.401 57.2684C321.297 56.2041 319.659 54.6765 318.487 52.6854C317.314 50.6942 316.728 48.3427 316.728 45.6307C316.728 43.5709 317.055 41.7342 317.711 40.1208C318.366 38.473 319.314 37.0826 320.556 35.9497C321.797 34.7825 323.28 33.9071 325.004 33.3235C326.728 32.7056 328.66 32.3966 330.797 32.3966C333.625 32.3966 336.09 32.9287 338.194 33.993C340.298 35.0572 341.918 36.5848 343.056 38.576C344.229 40.5327 344.815 42.8843 344.815 45.6307C344.815 47.6561 344.488 49.4927 343.832 51.1406C343.177 52.7884 342.229 54.1959 340.987 55.3631C339.781 56.496 338.298 57.3714 336.539 57.9893C334.815 58.5729 332.901 58.8647 330.797 58.8647ZM330.797 52.1189C331.728 52.1189 332.556 51.8958 333.28 51.4495C334.004 50.9689 334.556 50.2651 334.935 49.3383C335.349 48.377 335.556 47.1411 335.556 45.6307C335.556 43.3306 335.108 41.6827 334.211 40.6872C333.315 39.6573 332.177 39.1424 330.797 39.1424C329.866 39.1424 329.039 39.3655 328.315 39.8118C327.59 40.2581 327.021 40.9618 326.608 41.9231C326.194 42.85 325.987 44.0858 325.987 45.6307C325.987 47.8964 326.435 49.5442 327.332 50.5741C328.228 51.604 329.384 52.1189 330.797 52.1189ZM359.926 58.7617C358.443 58.7617 357.305 58.3669 356.512 57.5773C355.719 56.7878 355.323 55.6377 355.323 54.1272V40.1208H350.564C348.012 40.1208 346.736 38.9193 346.736 36.5162C346.736 35.3833 347.063 34.5079 347.719 33.89C348.408 33.272 349.357 32.9631 350.564 32.9631H369.288C371.84 32.9631 373.116 34.1474 373.116 36.5162C373.116 37.6834 372.789 38.576 372.133 39.1939C371.478 39.8118 370.53 40.1208 369.288 40.1208H364.53V54.1272C364.53 55.6377 364.133 56.7878 363.34 57.5773C362.581 58.3669 361.443 58.7617 359.926 58.7617ZM385.055 58.8647C383.09 58.8647 381.348 58.5042 379.831 57.7833C378.348 57.0624 377.176 56.084 376.314 54.8481C375.486 53.5779 375.072 52.1361 375.072 50.5226C375.072 48.6688 375.555 47.2098 376.52 46.1456C377.486 45.0814 379.038 44.3262 381.176 43.8799C383.313 43.3993 386.158 43.1589 389.71 43.1589H392.555V47.4845H389.71C388.366 47.4845 387.245 47.5874 386.348 47.7934C385.486 47.965 384.848 48.2569 384.434 48.6688C384.021 49.0464 383.814 49.5442 383.814 50.1622C383.814 50.9517 384.089 51.604 384.641 52.1189C385.227 52.6339 386.055 52.8914 387.124 52.8914C387.987 52.8914 388.745 52.7025 389.4 52.3249C390.089 51.9473 390.642 51.4324 391.055 50.7801C391.469 50.0935 391.676 49.3039 391.676 48.4114V42.438C391.676 41.2022 391.349 40.3268 390.693 39.8118C390.073 39.2969 388.986 39.0394 387.435 39.0394C386.607 39.0394 385.676 39.1424 384.641 39.3484C383.607 39.52 382.452 39.8462 381.176 40.3268C380.245 40.6701 379.452 40.7216 378.796 40.4812C378.141 40.2409 377.624 39.829 377.245 39.2454C376.899 38.6618 376.727 38.0267 376.727 37.3401C376.762 36.6535 376.986 36.0012 377.4 35.3833C377.848 34.7654 378.521 34.2848 379.417 33.9415C381.072 33.3235 382.589 32.9116 383.969 32.7056C385.382 32.4996 386.676 32.3966 387.848 32.3966C390.676 32.3966 393.004 32.8086 394.831 33.6325C396.693 34.4221 398.073 35.6579 398.969 37.3401C399.9 38.9879 400.366 41.1163 400.366 43.7254V54.1272C400.366 55.6377 400.004 56.7878 399.28 57.5773C398.556 58.3669 397.504 58.7617 396.124 58.7617C394.711 58.7617 393.625 58.3669 392.866 57.5773C392.142 56.7878 391.779 55.6377 391.779 54.1272V52.7884L392.09 53.5093C391.918 54.6078 391.521 55.5519 390.9 56.3415C390.279 57.131 389.469 57.749 388.469 58.1953C387.469 58.6416 386.331 58.8647 385.055 58.8647Z" fill="white"/>
</g>
<defs>
<clipPath id="clip0_1087_43747">
<rect width="423" height="82" fill="white"/>
</clipPath>
</defs>
</svg>
